<svg width="24" height="25" viewBox="0 0 24 25" fill="none" xmlns="http://www.w3.org/2000/svg">
<g clip-path="url(#clip0_1_33)">
<path d="M12 0.5C8.74 0.5 8.333 0.515 7.053 0.572C5.775 0.632 4.905 0.833 4.14 1.13C3.351 1.436 2.681 1.847 2.014 2.514C1.347 3.181 0.935 3.85 0.63 4.64C0.333 5.405 0.131 6.275 0.072 7.553C0.012 8.833 0 9.24 0 12.5C0 15.76 0.015 16.167 0.072 17.447C0.132 18.724 0.333 19.595 0.63 20.36C0.936 21.148 1.347 21.819 2.014 22.486C2.681 23.152 3.35 23.565 4.14 23.87C4.906 24.166 5.776 24.369 7.053 24.428C8.333 24.488 8.74 24.5 12 24.5C15.26 24.5 15.667 24.485 16.947 24.428C18.224 24.368 19.095 24.166 19.86 23.87C20.648 23.564 21.319 23.152 21.986 22.486C22.652 21.819 23.065 21.151 23.37 20.36C23.666 19.595 23.869 18.724 23.928 17.447C23.988 16.167 24 15.76 24 12.5C24 9.24 23.985 8.833 23.928 7.553C23.868 6.276 23.666 5.404 23.37 4.64C23.064 3.851 22.652 3.181 21.986 2.514C21.319 1.847 20.651 1.435 19.86 1.13C19.095 0.833 18.224 0.631 16.947 0.572C15.667 0.512 15.26 0.5 12 0.5ZM12 2.66C15.203 2.66 15.585 2.676 16.85 2.731C18.02 2.786 18.655 2.98 19.077 3.146C19.639 3.363 20.037 3.623 20.459 4.042C20.878 4.462 21.138 4.861 21.355 5.423C21.519 5.845 21.715 6.48 21.768 7.65C21.825 8.916 21.838 9.296 21.838 12.5C21.838 15.704 21.823 16.085 21.764 17.35C21.703 18.52 21.508 19.155 21.343 19.577C21.119 20.139 20.864 20.537 20.444 20.959C20.025 21.378 19.62 21.638 19.064 21.855C18.644 22.019 17.999 22.215 16.829 22.268C15.555 22.325 15.18 22.338 11.97 22.338C8.759 22.338 8.384 22.323 7.111 22.264C5.94 22.203 5.295 22.008 4.875 21.843C4.306 21.619 3.915 21.364 3.496 20.944C3.075 20.525 2.806 20.12 2.596 19.564C2.431 19.144 2.237 18.499 2.176 17.329C2.131 16.069 2.115 15.68 2.115 12.485C2.115 9.289 2.131 8.899 2.176 7.624C2.237 6.454 2.431 5.81 2.596 5.39C2.806 4.82 3.075 4.43 3.496 4.009C3.915 3.59 4.306 3.32 4.875 3.111C5.295 2.945 5.926 2.75 7.096 2.69C8.371 2.645 8.746 2.63 11.955 2.63L12 2.66ZM12 6.338C8.595 6.338 5.838 9.098 5.838 12.5C5.838 15.905 8.598 18.662 12 18.662C15.405 18.662 18.162 15.902 18.162 12.5C18.162 9.095 15.402 6.338 12 6.338ZM12 16.5C9.79 16.5 8 14.71 8 12.5C8 10.29 9.79 8.5 12 8.5C14.21 8.5 16 10.29 16 12.5C16 14.71 14.21 16.5 12 16.5ZM19.846 6.095C19.846 6.89 19.2 7.535 18.406 7.535C17.611 7.535 16.966 6.889 16.966 6.095C16.966 5.301 17.612 4.656 18.406 4.656C19.199 4.655 19.846 5.301 19.846 6.095Z" fill="white"/>
</g>
<defs>
<clipPath id="clip0_1_33">
<rect width="24" height="24" fill="white" transform="translate(0 0.5)"/>
</clipPath>
</defs>
</svg>
