<svg width="24" height="25" viewBox="0 0 24 25" fill="none" xmlns="http://www.w3.org/2000/svg">
<path d="M16.5 12.5C16.5 14.157 17.507 15.5 18.75 15.5C19.993 15.5 21 14.157 21 12.5C21 10.4178 20.278 8.40003 18.957 6.79048C17.6361 5.18093 15.7979 4.07919 13.7557 3.67299C11.7136 3.26679 9.5937 3.58126 7.75737 4.56282C5.92104 5.54437 4.48187 7.13228 3.68506 9.05599C2.88825 10.9797 2.78311 13.1202 3.38756 15.1127C3.992 17.1052 5.26863 18.8265 6.99992 19.9833C8.73121 21.1401 10.81 21.6608 12.8822 21.4567C14.9544 21.2526 16.8917 20.3363 18.364 18.864M16.5 12.5V8.75M16.5 12.5C16.5 13.6935 16.0259 14.8381 15.182 15.682C14.3381 16.5259 13.1935 17 12 17C10.8065 17 9.66194 16.5259 8.81802 15.682C7.97411 14.8381 7.5 13.6935 7.5 12.5C7.5 11.3065 7.97411 10.1619 8.81802 9.31802C9.66194 8.4741 10.8065 8 12 8C13.1935 8 14.3381 8.4741 15.182 9.31802C16.0259 10.1619 16.5 11.3065 16.5 12.5V12.5Z" stroke="white" stroke-width="1.5" stroke-linecap="round"/>
</svg>
